<svg width="2379" height="1329" viewBox="0 0 2379 1329" fill="none" xmlns="http://www.w3.org/2000/svg">
<path d="M150.87 544.342V280.48H209.934C279.912 280.48 337.05 321.568 337.05 412.732C337.05 503.896 279.912 544.342 209.934 544.342H150.87ZM213.786 640C351.174 640 442.98 553.33 442.98 412.732C442.98 272.134 351.174 184.822 214.428 184.822H49.434V640H213.786ZM804.16 640V543.7H616.696V456.388H786.184V367.15H616.696V280.48H803.518V184.822H515.26V640H804.16ZM1071.16 505.18L961.38 184.822H849.672L1016.59 640H1121.24L1287.52 184.822H1179.66L1071.16 505.18ZM1446.19 640V184.822H1343.47V640H1446.19ZM1754.65 649.63C1895.89 649.63 1956.24 553.33 1971.01 490.414L1874.06 462.808C1865.08 495.55 1833.62 548.194 1754.65 548.194C1686.6 548.194 1623.68 498.76 1623.68 413.374C1623.68 317.716 1692.38 274.06 1753.37 274.06C1833.62 274.06 1862.51 327.346 1869.57 358.804L1965.23 328.63C1950.46 263.146 1890.11 175.192 1753.37 175.192C1626.25 175.192 1518.4 271.492 1518.4 413.374C1518.4 555.256 1623.68 649.63 1754.65 649.63ZM2329.54 640V543.7H2142.07V456.388H2311.56V367.15H2142.07V280.48H2328.9V184.822H2040.64V640H2329.54Z" fill="white"/>
<path d="M2228.13 784.658V1048.52H2169.07C2099.09 1048.52 2041.95 1007.43 2041.95 916.268C2041.95 825.104 2099.09 784.658 2169.07 784.658H2228.13ZM2165.21 689C2027.83 689 1936.02 775.67 1936.02 916.268C1936.02 1056.87 2027.83 1144.18 2164.57 1144.18H2329.57L2329.57 689L2165.21 689ZM1574.84 689V785.3L1762.3 785.3V872.612L1592.82 872.612L1592.82 961.85L1762.3 961.85V1048.52L1575.48 1048.52V1144.18H1863.74L1863.74 689L1574.84 689ZM1307.84 823.82L1417.62 1144.18H1529.33L1362.41 689H1257.76L1091.48 1144.18H1199.34L1307.84 823.82ZM932.815 689L932.815 1144.18L1035.53 1144.18L1035.53 689H932.815ZM624.349 679.37C483.109 679.37 422.761 775.67 407.995 838.586L504.937 866.192C513.925 833.45 545.383 780.806 624.349 780.806C692.401 780.806 755.317 830.24 755.317 915.626C755.317 1011.28 686.623 1054.94 625.633 1054.94C545.383 1054.94 516.493 1001.65 509.431 970.196L413.773 1000.37C428.539 1065.85 488.887 1153.81 625.633 1153.81C752.749 1153.81 860.605 1057.51 860.605 915.626C860.605 773.744 755.317 679.37 624.349 679.37ZM49.4629 689L49.4629 785.3H236.927V872.612H67.4389V961.85H236.927V1048.52H50.1049V1144.18H338.363L338.363 689L49.4629 689Z" fill="white"/>
</svg>
