<svg width="1213" height="675" viewBox="0 0 1213 675" fill="none" xmlns="http://www.w3.org/2000/svg">
<path d="M65.5749 321.67C85.871 311.797 107.924 312.224 131.735 322.951L131.156 324.627L130.028 325.175C112.516 319.751 92.8597 322.341 71.0602 332.946C39.8644 348.122 20.8582 376.89 14.0418 419.249C13.483 427.655 14.895 435.335 18.2776 442.288C26.597 459.389 55.3039 466.805 104.398 464.535C187.391 465.064 235.835 479.611 249.731 508.176L253.022 514.941C264.267 538.056 256.242 571.243 228.947 614.501C207.944 637.733 192.463 651.771 182.503 656.616L168.972 663.199C133.388 677.953 106.845 677.851 89.3425 662.893L83.8267 654.422C70.1133 626.233 87.6771 592.589 136.518 553.49L159.648 540.844C180.132 530.879 195.877 526.937 206.884 529.02L205.756 529.568L190.58 532.768L182.687 536.608C145.289 554.801 116.389 582.339 95.9863 619.224C92.6086 629.001 92.3139 638.905 95.1023 648.936C102.142 663.407 124.185 664.768 161.232 653.02L169.125 649.181C193.743 637.204 214.73 615.374 232.086 583.691C243.514 555.589 247.262 537.497 243.331 529.416L241.655 528.837L241.107 527.71C243.362 526.613 243.575 524.185 241.747 520.426L240.101 517.044C226.022 488.103 173.26 475.191 81.8167 478.309C49.6661 478.147 26.5664 470.792 12.5178 456.245L8.09904 450.028L3.71078 441.008C-3.60299 425.974 0.196335 403.209 15.1087 372.715C24.8862 350.296 41.7082 333.281 65.5749 321.67ZM208.011 528.471L210.266 527.374L213.618 528.532L211.363 529.629L208.011 528.471ZM224.285 527.527L226.54 526.43L229.892 527.588L227.637 528.685L224.285 527.527ZM286.644 427.121L290.026 425.476C291.53 424.744 294.13 426.268 297.828 430.047C297.97 434.161 299.595 439.413 302.704 445.802L303.801 448.057C311.115 463.092 324.168 466.038 342.96 456.895L349.726 453.604C353.86 451.593 359.518 446.981 366.7 439.769L367.828 439.22C359.239 455.483 349.213 466.403 337.749 471.98L334.366 473.626C323.655 478.837 312.836 476.663 301.911 467.104C298.503 488.284 292.195 501.113 282.986 505.593L277.348 508.336C268.348 510.855 262.203 508.732 258.911 501.967L255.62 495.201C249.881 472.894 255.092 457.809 271.254 449.947L271.833 448.271L287.009 445.071L286.461 443.943C283.352 437.554 283.413 431.946 286.644 427.121ZM268.541 493.098L269.09 494.226L274.118 495.963L275.246 495.415C284.83 490.752 288.904 477.15 287.466 454.609L286.339 455.158C271.117 462.563 264.463 472.772 266.378 485.785L268.541 493.098ZM375.386 363.034L382.09 365.35L382.639 366.478L411.041 436.326L416.526 447.601C427.588 470.34 439.036 483.363 450.87 486.67C451.602 488.173 454.223 487.828 458.733 485.634C465.036 481.87 471.314 471.844 477.566 455.555L478.115 456.683C473.757 479.254 466.88 492.826 457.483 497.397C440.946 505.442 422.255 488.041 401.411 445.194L399.735 444.615L399.186 443.487L394.828 431.663L388.246 418.132L387.118 418.681C391.131 445.082 391.334 460.786 387.727 465.794L382.09 468.537L375.385 466.221L368.803 452.69L367.675 453.239C373.77 477.232 373.059 491.057 365.542 494.714L363.287 495.811L356.582 493.495L353.291 486.73C328.724 425.242 318.79 393.356 323.488 391.07L324.615 390.522C329.379 390.76 332.721 392.853 334.641 396.8L354.175 457.017L354.724 458.145L355.851 457.596C345.937 406.643 343.611 379.886 348.873 377.326L352.256 375.681C353.947 374.858 356.73 376.758 360.606 381.38L374.136 426.391C374.852 420.697 373.176 402.92 369.108 373.06C369.723 368.113 371.815 364.771 375.386 363.034ZM478.755 449.4L479.303 450.527L478.145 453.879L477.597 452.752L478.755 449.4ZM410.995 363.141L413.251 362.044L416.603 363.202L417.7 365.457C421.702 392.793 425.44 410.031 428.914 417.172L434.399 428.448L437.752 429.606C445.335 411.276 450.058 389.456 451.923 364.147L455.884 360.825L457.012 360.277L464.265 363.72L472.401 389.045C474.595 393.555 479.238 396.41 486.328 397.608L500.986 390.477L526.951 375.057L528.048 377.313L499.706 405.044L492.941 408.335C481.665 413.821 471.243 409.595 461.674 395.658C456.336 422.424 450.19 437.499 443.237 440.882L437.599 443.624C429.666 442.603 423.55 437.677 419.254 428.844C412.671 415.313 408.578 396.389 406.973 372.07L410.995 363.141ZM508.423 312.607L514.061 309.865C522.309 307.711 527.896 309.641 530.822 315.655L532.467 319.038C539.05 332.568 532.68 351.005 513.359 374.349L507.142 378.768L499.249 382.607C501.809 387.869 506.472 388.855 513.237 385.563L520.003 382.272C531.09 376.878 550.878 362.139 579.367 338.054C564.109 365.928 545.581 385.167 523.781 395.772C506.492 404.183 495.288 403.127 490.168 392.603L487.974 388.093C482.214 376.253 484.49 356.089 494.801 327.601C499.372 319.799 503.913 314.802 508.423 312.607ZM500.529 368.04C512.222 358.634 519.475 344.88 522.289 326.778L520.643 323.395L517.291 322.237C505.639 327.906 499.676 343.356 499.402 368.589L500.529 368.04ZM517.49 175.03C519.181 174.208 522.147 176.483 526.388 181.857C550.056 257.261 568.381 308.306 581.363 334.991C596.24 359.361 608.094 369.397 616.927 365.101L618.603 365.68L619.151 366.807L611.228 373.451C600.704 378.57 588.271 370.21 573.927 348.37L570.088 340.477C551.438 302.14 532.584 248.098 513.528 178.352L514.107 176.676L517.49 175.03ZM714.021 10.0505L716.276 8.95341C717.78 8.22204 720.38 9.74578 724.078 13.5246C726.673 24.1146 728.816 50.4953 730.507 92.667C743.073 149.07 753.698 186.198 762.383 204.052L764.059 204.631L774.237 196.89C780.815 193.69 788.667 193.589 797.794 196.586C777.478 208.328 768.051 215.703 769.514 218.71L781.581 243.516C805.26 292.189 835.978 320.937 873.736 329.76L893.971 325.493L894.55 323.817L901.315 320.526C902.595 323.157 897.872 327.779 887.144 334.392C863.278 346.002 834.073 332.786 799.531 294.744C786.975 280.4 773.567 258.57 759.305 229.254L758.756 228.126C745.698 242.845 736.068 251.713 729.866 254.73L726.484 256.376C728.662 279.486 728.134 293.687 724.899 298.979L723.771 299.528L720.419 298.37C722.4 296.709 721.679 277.073 718.256 239.463C716.173 198.876 715.828 144.661 717.221 76.8201C711.786 35.0751 710.72 12.8186 714.021 10.0505ZM726.637 139.171L727.764 241.809L728.891 241.261C745.53 223.87 753.301 214.047 752.204 211.792C746.079 199.201 738.115 175.187 728.313 139.75L727.764 138.622L726.637 139.171ZM799.379 166.881L800.507 166.332L807.211 168.648L807.76 169.776L826.288 219.327L840.611 243.037L837.776 245.81C829.914 246.846 823.423 242.102 818.303 231.578L813.367 221.43C799.531 187.258 794.869 169.075 799.379 166.881ZM782.923 120.155L785.178 119.058C789.689 116.864 795.469 118.236 802.518 123.172L805.261 128.81C807.272 132.945 806.47 137.983 802.853 143.926L799.471 145.571C791.405 148.101 786.001 146.546 783.258 140.908L781.064 136.398C778.87 131.888 779.49 126.474 782.923 120.155ZM792.615 41.1884C794.306 40.3656 797.272 42.641 801.513 48.0147C825.181 123.419 843.506 174.464 856.488 201.15C871.365 225.519 883.219 235.555 892.052 231.259L893.728 231.838L894.276 232.965L886.353 239.609C875.829 244.728 863.395 236.368 849.052 214.528L845.213 206.635C826.562 168.298 807.709 114.256 788.653 44.5101L789.232 42.834L792.615 41.1884ZM894.612 124.735L900.25 121.992C908.499 119.839 914.086 121.769 917.011 127.783L918.657 131.165C925.239 144.696 918.87 163.133 899.549 186.476L893.332 190.895L885.439 194.735C887.999 199.997 892.661 200.982 899.427 197.691L906.192 194.4C917.28 189.006 937.068 174.267 965.557 150.182C950.299 178.056 931.77 197.295 909.971 207.9C892.682 216.311 881.477 215.254 876.357 204.73L874.163 200.22C868.404 188.381 870.679 168.217 880.99 139.728C885.561 131.927 890.102 126.929 894.612 124.735ZM886.719 180.168C898.411 170.762 905.664 157.008 908.478 138.906L906.832 135.523L903.48 134.365C891.829 140.033 885.866 155.484 885.591 180.717L886.719 180.168ZM992.162 62.9867L998.866 65.3029L999.415 66.4304L1027.82 136.278L1033.3 147.554C1044.36 170.293 1055.81 183.316 1067.65 186.622C1068.38 188.126 1071 187.78 1075.51 185.586C1081.81 181.823 1088.09 171.797 1094.34 155.508L1094.89 156.636C1090.53 179.207 1083.66 192.778 1074.26 197.349C1057.72 205.395 1039.03 187.993 1018.19 145.146L1016.51 144.567L1015.96 143.44L1011.6 131.615L1005.02 118.085L1003.89 118.633C1007.91 145.034 1008.11 160.739 1004.5 165.747L998.865 168.49L992.161 166.173L985.578 152.643L984.451 153.191C990.546 177.185 989.834 191.01 982.317 194.667L980.062 195.764L973.358 193.448L970.067 186.683C945.5 125.195 935.565 93.3085 940.263 91.0229L941.391 90.4744C946.155 90.7131 949.497 92.8057 951.417 96.7522L970.951 156.97L971.499 158.098L972.627 157.549C962.713 106.596 960.387 79.8389 965.649 77.2791L969.031 75.6335C970.723 74.8107 973.506 76.7103 977.381 81.3323L990.912 126.343C991.628 120.65 989.952 102.873 985.884 73.0128C986.498 68.0658 988.591 64.7238 992.162 62.9867ZM1095.53 149.352L1096.08 150.48L1094.92 153.832L1094.37 152.704L1095.53 149.352ZM1053.6 47.3919L1059.24 44.6492C1067.48 42.4957 1073.07 44.4258 1076 50.4395L1077.64 53.8222C1084.23 67.3529 1077.86 85.7899 1058.53 109.133L1052.32 113.552L1044.42 117.392C1046.98 122.654 1051.65 123.639 1058.41 120.348L1065.18 117.057C1076.27 111.663 1096.05 96.9234 1124.54 72.8386C1109.29 100.713 1090.76 119.952 1068.96 130.557C1051.67 138.968 1040.46 137.911 1035.34 127.387L1033.15 122.877C1027.39 111.038 1029.67 90.8737 1039.98 62.3852C1044.55 54.5838 1049.09 49.586 1053.6 47.3919ZM1045.71 102.825C1057.4 93.4186 1064.65 79.6644 1067.46 61.5626L1065.82 58.1799L1062.47 57.0219C1050.81 62.69 1044.85 78.1406 1044.58 103.373L1045.71 102.825ZM1089.84 2.22131L1093.22 0.575712C1095.84 0.230353 1098.07 1.93694 1099.9 5.69548L1102.64 11.3333L1124.46 67.6503L1125.01 68.7779L1126.14 68.2293C1118.47 33.8439 1117.36 15.3255 1122.81 12.6743L1123.94 12.1258C1132.96 7.73751 1144.6 20.2017 1158.86 49.5182C1180.79 78.8247 1195.79 91.5124 1203.88 87.5812C1206.13 86.4842 1208.99 81.8419 1212.44 73.6544L1212.99 74.782C1211.93 86.4537 1208.48 93.7066 1202.66 96.5407L1200.4 97.6378C1186.12 104.586 1163.92 82.8472 1133.81 32.4219L1132.69 32.9704C1141.65 77.1839 1145.85 103.026 1145.3 110.498L1143.02 114.398L1139.63 116.044C1134.12 116.171 1129.49 112.382 1125.74 104.677C1098.24 38.1102 1086.27 3.95833 1089.84 2.22131Z" fill="white"/>
</svg>
